<?xml version="1.0" encoding="utf-8"?>
<!-- Generator: Adobe Illustrator 27.7.0, SVG Export Plug-In . SVG Version: 6.00 Build 0)  -->
<svg version="1.2" baseProfile="tiny" id="Capa_1" xmlns="http://www.w3.org/2000/svg" xmlns:xlink="http://www.w3.org/1999/xlink"
	 x="0px" y="0px" viewBox="0 0 595.28 160.57" overflow="visible" xml:space="preserve">
<path fill="#151A19" d="M35.35,47.73v58.66c0,2.46,1.16,4.29,3.48,5.49c1.03,0.58,2.22,1.09,3.58,1.54s2.76,0.94,4.19,1.47v3.95
	H17.14v-3.95c1.25-0.54,2.5-1.03,3.75-1.47c1.25-0.45,2.37-0.96,3.35-1.54c2.28-1.25,3.42-3.08,3.42-5.49v-68.7L35.35,47.73z
	 M35.62,39.43c-4.78-5.62-9.55-9.15-14.33-10.58c-1.25-0.4-2.48-0.8-3.68-1.21v-3.95h26.11l51.23,81.02v14.66H85.1L35.62,39.43z
	 M87.24,83.22V36.01c0-2.41-1.12-4.26-3.35-5.56c-0.98-0.54-2.09-1.03-3.31-1.47c-1.23-0.45-2.44-0.94-3.65-1.47v-3.95h27.99v3.95
	c-1.12,0.54-2.27,1.03-3.45,1.47c-1.18,0.45-2.24,0.94-3.18,1.47c-2.23,1.29-3.35,3.15-3.35,5.56v59.26L87.24,83.22z"/>
<path fill="#151A19" d="M120.93,128.25c0.62,0.56,1.12,1.23,1.47,2.01s0.54,1.82,0.54,3.11s-0.78,2.77-2.34,4.42
	c0.67,0.89,1.54,1.34,2.61,1.34c2.68,0,5.23-1.73,7.67-5.19c2.43-3.46,4.59-8.36,6.46-14.7l-22.97-57.32
	c-0.76-1.96-2.66-3.3-5.69-4.02c-0.71-0.18-1.38-0.4-2.01-0.67v-4.08h30.67v3.95c-0.94,0.36-1.87,0.66-2.81,0.9
	c-0.94,0.25-1.79,0.52-2.54,0.84c-1.74,0.62-2.61,1.47-2.61,2.54c0,0.62,0.92,3.33,2.75,8.1l0.07,0.07
	c2.68,6.74,5.32,13.45,7.93,20.12c2.61,6.67,5.26,13.36,7.93,20.05l-7.83,20.36c-4.33,10.89-10.78,16.34-19.35,16.34
	c-5.8,0-9.69-2.28-11.65-6.83c-0.62-1.47-0.94-3.33-0.94-5.56s0.75-4.06,2.24-5.49c1.5-1.43,3.05-2.14,4.65-2.14s2.81,0.17,3.62,0.5
	C119.59,127.25,120.3,127.69,120.93,128.25z M146.77,94.4c1.47-4.2,2.85-8.05,4.12-11.55c1.27-3.5,2.4-6.62,3.38-9.34
	c2.1-5.8,3.15-9.43,3.15-10.88s-0.25-2.39-0.74-2.81s-1.1-0.76-1.84-1c-0.74-0.25-1.55-0.47-2.44-0.67c-0.89-0.2-1.74-0.5-2.54-0.9
	v-4.08h23.7v4.08c-0.71,0.45-1.44,0.78-2.18,1c-0.74,0.22-1.44,0.47-2.11,0.74c-1.61,0.71-2.72,1.92-3.35,3.62l-15.33,40.51
	L146.77,94.4z"/>
<path fill="#151A19" d="M201.08,96.41c-2.95,3.75-5.29,6.79-7.03,9.11c-1.74,2.32-2.61,3.92-2.61,4.79s0.25,1.52,0.74,1.94
	s1.08,0.78,1.77,1.07c0.69,0.29,1.43,0.55,2.21,0.77c0.78,0.22,1.48,0.54,2.11,0.94v3.82h-27.79v-3.82
	c0.94-0.58,1.92-1.02,2.95-1.31c1.03-0.29,2.14-0.73,3.35-1.31c2.95-1.43,5.83-3.86,8.64-7.3l11.52-14.13L201.08,96.41z
	 M212.8,104.98c-2.23-2.9-4.43-5.79-6.6-8.67c-2.17-2.88-4.39-5.75-6.66-8.6l-17.81-23.84c-2.23-3.08-4.73-4.98-7.5-5.69
	c-0.76-0.22-1.54-0.54-2.34-0.94v-4.08h31.81v4.22c-0.62,0.31-1.33,0.55-2.11,0.7c-0.78,0.16-1.51,0.32-2.18,0.5
	c-1.56,0.4-2.34,1.12-2.34,2.14c0,1.03,1.23,3.21,3.68,6.56c2.46,3.35,4.26,5.76,5.42,7.23c2.9,3.75,5.04,6.5,6.43,8.24l19.02,25.51
	c1.47,2.01,2.99,3.37,4.55,4.08c1.56,0.71,2.76,1.21,3.58,1.47c0.83,0.27,1.62,0.67,2.38,1.21v3.82h-33.35v-3.68
	c0.76-0.4,1.56-0.74,2.41-1s1.63-0.54,2.34-0.8c1.61-0.62,2.41-1.46,2.41-2.51c0-1.05-1.07-3-3.21-5.86H212.8z M210.92,74.18
	c1.34-1.79,2.56-3.34,3.65-4.65s2-2.47,2.71-3.45c1.56-2.14,2.34-3.64,2.34-4.49c0-0.85-0.22-1.45-0.67-1.81
	c-0.45-0.36-1.02-0.67-1.71-0.94c-0.69-0.27-1.44-0.51-2.24-0.74c-0.8-0.22-1.54-0.47-2.21-0.74v-4.22h26.99v3.68
	c-0.62,0.45-1.31,0.78-2.04,1c-0.74,0.22-1.53,0.47-2.38,0.74c-2.1,0.67-3.59,1.47-4.49,2.41s-1.61,1.67-2.14,2.21
	s-1.03,1.07-1.47,1.61l-12.05,14.73L210.92,74.18z"/>
<path fill="#151A19" d="M269.51,52.35v55.91c0,2.1,0.92,3.62,2.75,4.55c0.85,0.45,1.76,0.84,2.75,1.17
	c0.98,0.33,1.94,0.77,2.88,1.31v3.55h-31.14v-3.55c0.94-0.54,1.91-0.97,2.91-1.31c1-0.33,1.93-0.73,2.78-1.17
	c1.87-0.94,2.81-2.46,2.81-4.55v-44.8c0-2.37-0.89-4-2.68-4.89c-0.8-0.4-1.72-0.73-2.75-0.97c-1.03-0.25-2.05-0.64-3.08-1.17v-3.68
	L269.51,52.35z M252.77,31.56c0-2.57,0.83-4.64,2.48-6.23c1.65-1.58,3.45-2.38,5.39-2.38c1.94,0,3.46,0.21,4.55,0.64
	c1.09,0.42,2.04,1.02,2.85,1.77c1.7,1.61,2.54,3.68,2.54,6.23c0,2.5-0.85,4.55-2.54,6.16c-1.65,1.56-3.78,2.34-6.39,2.34
	c-2.61,0-4.74-0.78-6.39-2.34C253.6,36.19,252.77,34.13,252.77,31.56z"/>
<path fill="#151A19" d="M314.65,57.97c-9.55,0-14.33,9.49-14.33,28.46s4.51,28.46,13.53,28.46c2.68,0,5.45-1.65,8.3-4.96v7.97
	c-2.95,1.83-6.43,2.75-10.45,2.75s-7.66-0.76-10.91-2.28c-3.26-1.52-6.09-3.73-8.5-6.63c-5.31-6.38-7.97-14.75-7.97-25.11
	s2.61-18.82,7.83-25.38c5.27-6.61,11.9-9.91,19.89-9.91c3.53,0,6.9,0.85,10.11,2.54v6.36C320.01,58.73,317.51,57.97,314.65,57.97z
	 M327.71,34.34c0-2.41-0.89-4.02-2.68-4.82c-0.8-0.4-1.72-0.73-2.75-0.97c-1.03-0.25-2.05-0.64-3.08-1.17v-4.08h22.77v83.37
	c0,3.57,1.79,5.94,5.36,7.1c0.89,0.27,1.74,0.65,2.54,1.14v3.95h-22.16V34.34z"/>
<path fill="#151A19" d="M487.24,108.26c0,2.1,0.92,3.62,2.75,4.55c0.8,0.45,1.71,0.84,2.71,1.17c1,0.33,2,0.77,2.98,1.31v3.55h-31.2
	v-3.55c0.94-0.54,1.91-0.97,2.91-1.31c1-0.33,1.91-0.73,2.71-1.17c1.87-0.98,2.81-2.5,2.81-4.55V66.75c0-4.42-0.87-6.99-2.61-7.7
	c-0.54-0.22-1.12-0.42-1.74-0.6c-1.96-0.45-3.39-0.98-4.29-1.61v-4.08h22.97V108.26z M492.79,55.3c3.84-2.63,8.24-3.95,13.19-3.95
	c7.95,0,13.73,2.72,17.34,8.17c1.07,1.61,1.85,3.33,2.34,5.16v43.59c0,2.19,0.87,3.75,2.61,4.69c0.8,0.45,1.67,0.81,2.61,1.1
	c0.94,0.29,1.85,0.7,2.75,1.24v3.55h-25.65v-4.55c0-0.85,0.38-1.63,1.14-2.34c0.76-0.71,1.32-1.33,1.67-1.84
	c0.36-0.51,0.54-1.26,0.54-2.24V69.22c0-7.14-3.12-10.71-9.37-10.71c-3.66,0-6.72,1.18-9.17,3.55V55.3z M540.34,58.51
	c-3.39,0-6.43,1.09-9.11,3.28v-6.56c4.02-2.5,7.98-3.75,11.89-3.75s7.05,0.38,9.44,1.14c2.39,0.76,4.43,1.92,6.13,3.48
	c3.62,3.26,5.42,8.08,5.42,14.46v37.7c0,2.19,0.92,3.75,2.75,4.69c0.76,0.45,1.62,0.81,2.58,1.1s1.91,0.7,2.85,1.24v3.55H546.5
	v-4.55c0-0.85,0.38-1.65,1.14-2.41c1.47-1.47,2.21-2.86,2.21-4.15V68.62C549.85,61.88,546.68,58.51,540.34,58.51z"/>
<path fill="#5BB888" d="M379.32,94.53c0,0,13.18-23.37,42.08-27.85c19.34-3,41.23-7.05,58.85-22.03
	C445.9,42.01,397.23,59.29,379.32,94.53z"/>
<path fill="#307BBF" d="M505.42,16.07c-37.88-5.29-99.39,19.59-122.77,70.91c25.53-39.33,56.04-43.15,73.91-46.4
	C486.84,35.07,505.42,16.07,505.42,16.07z"/>
<path fill="#151A19" d="M429.03,70.53c2.99,2.45,7.46,8.32,7.46,17.7c0,8.52-3.97,20.39-14.48,20.39c-8.69,0-14.65-8.84-14.65-20.39
	c0-8.01,3.08-12.9,3.96-14.17c-2.23,0.16-13.09,4.67-17.47,7.96c-0.22,0.46-0.91,3.26-0.91,6.21c0,18.31,9.59,35.24,31.68,35.24
	c21.69,0,35.2-17.5,35.2-36.5c0-13.34-3.41-19.67-4.95-20.76C450.32,67.78,444.5,69.54,429.03,70.53z"/>
<path fill="#151A19" d="M381.75,52.35v55.91c0,2.1,0.92,3.62,2.75,4.55c0.85,0.45,1.76,0.84,2.75,1.17
	c0.98,0.33,1.94,0.77,2.88,1.31v3.55h-31.14v-3.55c0.94-0.54,1.91-0.97,2.91-1.31c1-0.33,1.93-0.73,2.78-1.17
	c1.87-0.94,2.81-2.46,2.81-4.55v-44.8c0-2.37-0.89-4-2.68-4.89c-0.8-0.4-1.72-0.73-2.75-0.97c-1.03-0.25-2.05-0.64-3.08-1.17v-3.68
	L381.75,52.35z M365.01,31.56c0-2.57,0.83-4.64,2.48-6.23c1.65-1.58,3.45-2.38,5.39-2.38c1.94,0,3.46,0.21,4.55,0.64
	c1.09,0.42,2.04,1.02,2.85,1.77c1.7,1.61,2.54,3.68,2.54,6.23c0,2.5-0.85,4.55-2.54,6.16c-1.65,1.56-3.78,2.34-6.39,2.34
	c-2.61,0-4.74-0.78-6.39-2.34C365.83,36.19,365.01,34.13,365.01,31.56z"/>
</svg>
